<?xml version="1.0" standalone="no"?>
<!DOCTYPE svg PUBLIC "-//W3C//DTD SVG 20010904//EN"
 "http://www.w3.org/TR/2001/REC-SVG-20010904/DTD/svg10.dtd">
<svg version="1.0" xmlns="http://www.w3.org/2000/svg"
 width="1126.000000pt" height="1126.000000pt" viewBox="0 0 1126.000000 1126.000000"
 preserveAspectRatio="xMidYMid meet">

<g transform="translate(0.000000,1126.000000) scale(0.100000,-0.100000)"
fill="#000000" stroke="none">
<path d="M8787 9060 c-31 -25 -42 -69 -27 -114 9 -29 7 -43 -15 -102 -60 -159
-146 -264 -362 -444 -17 -13 -23 -29 -23 -57 0 -21 4 -43 8 -49 4 -7 50 -40
101 -75 122 -81 231 -192 304 -310 44 -71 57 -102 57 -131 0 -57 34 -88 98
-88 67 0 84 20 81 93 -2 43 4 67 26 112 56 115 220 256 406 351 69 34 79 46
79 94 0 47 -8 57 -112 126 -111 74 -265 215 -334 308 -55 72 -96 151 -118 225
-9 29 -21 60 -27 67 -18 22 -111 18 -142 -6z m137 -366 c50 -74 178 -207 271
-280 41 -32 75 -61 75 -65 0 -3 -37 -30 -82 -59 -81 -52 -209 -171 -259 -239
l-24 -33 -38 54 c-37 55 -168 187 -241 244 l-40 31 68 69 c91 92 160 183 199
265 18 37 32 68 33 68 1 1 18 -24 38 -55z"/>
<path d="M5310 8815 c-244 -34 -433 -90 -675 -198 -245 -110 -602 -345 -855
-564 -192 -167 -473 -464 -658 -696 -220 -277 -564 -842 -805 -1324 -41 -81
-133 -250 -205 -375 -325 -570 -404 -874 -406 -1563 -1 -276 2 -324 21 -435
12 -69 29 -144 37 -167 8 -23 12 -44 8 -47 -11 -7 -273 -44 -428 -61 -304 -33
-354 -57 -354 -170 0 -114 72 -149 227 -110 32 8 123 21 203 30 80 9 267 34
415 56 431 64 478 69 710 76 382 10 608 -25 1125 -175 217 -63 399 -102 593
-127 138 -18 489 -20 635 -5 132 15 398 61 627 110 264 57 453 88 576 96 297
19 858 -94 1496 -300 405 -131 513 -150 848 -150 205 0 309 6 575 32 432 42
581 51 925 58 372 6 391 8 427 44 25 25 28 36 28 90 0 54 -3 65 -28 90 -20 19
-42 29 -78 34 -85 12 -846 -18 -1124 -43 -47 -4 -86 -7 -88 -5 -2 1 36 87 83
191 192 416 248 573 348 978 l64 260 2 280 c2 345 -19 546 -84 806 -111 438
-391 1105 -622 1484 -27 44 -62 102 -78 128 -146 238 -383 512 -635 733 -275
242 -692 491 -1170 699 -331 144 -432 173 -645 186 -77 4 -212 20 -300 34
-135 23 -197 28 -400 30 -164 3 -270 0 -335 -10z m455 -250 c77 -8 205 -25
285 -39 80 -13 199 -26 265 -29 160 -7 235 -31 600 -194 558 -249 933 -497
1265 -840 158 -163 222 -240 341 -413 289 -420 623 -1177 742 -1680 88 -370
95 -690 22 -1004 -109 -463 -198 -706 -464 -1255 -23 -47 -41 -95 -41 -107 0
-21 -6 -23 -97 -31 -54 -4 -170 -8 -258 -7 -230 1 -361 27 -733 148 -235 76
-675 195 -855 231 -228 46 -396 66 -592 72 -234 7 -360 -7 -705 -78 -566 -116
-723 -139 -955 -139 -246 0 -477 41 -871 154 -455 130 -616 156 -1011 163
-234 4 -327 2 -468 -12 -102 -10 -180 -14 -185 -9 -15 17 -60 169 -69 239 -6
39 -15 93 -20 120 -13 64 -13 388 -1 525 40 448 122 697 365 1115 48 83 145
261 216 396 223 431 405 744 612 1054 242 362 647 793 982 1047 471 356 887
540 1311 577 135 12 167 12 319 -4z"/>
<path d="M6730 7603 c-45 -8 -188 -84 -234 -124 -24 -22 -49 -54 -54 -72 -6
-17 -9 -102 -8 -187 1 -150 2 -158 34 -233 46 -113 98 -178 172 -215 27 -13
59 -17 140 -17 96 1 111 4 172 32 111 52 181 130 222 249 24 70 22 218 -5 296
-41 123 -141 236 -233 263 -46 14 -148 18 -206 8z m145 -162 c56 -26 93 -66
129 -141 79 -168 -5 -339 -192 -390 -38 -10 -48 -9 -85 9 -67 34 -128 139
-142 248 -6 41 -3 56 24 107 17 32 31 68 31 81 0 33 116 98 185 104 6 0 28 -8
50 -18z"/>
<path d="M4866 7540 c-105 -54 -195 -145 -253 -253 -19 -35 -23 -56 -23 -137
1 -116 11 -164 56 -257 35 -74 103 -151 158 -180 18 -10 64 -18 113 -21 74 -4
91 -1 155 24 96 39 210 147 256 245 52 109 61 262 21 354 -25 56 -88 142 -134
183 -59 52 -119 72 -216 72 -66 0 -85 -4 -133 -30z m192 -139 c46 -24 100 -82
132 -141 34 -63 33 -136 -4 -212 -35 -74 -134 -166 -204 -191 -48 -18 -53 -18
-86 -2 -67 32 -140 158 -152 261 -6 46 -4 58 13 77 11 12 31 42 45 67 31 53
54 76 128 124 63 41 77 43 128 17z"/>
<path d="M5501 6385 c-250 -38 -436 -117 -569 -239 -55 -51 -70 -80 -88 -173
-35 -186 6 -366 120 -527 128 -178 303 -276 596 -331 102 -19 409 -22 515 -5
248 40 452 98 590 168 110 57 214 155 263 250 18 34 37 62 42 62 24 0 50 46
50 88 0 62 -37 120 -150 232 -210 210 -581 397 -915 461 -136 26 -335 32 -454
14z m334 -155 c117 -17 306 -70 379 -108 26 -12 27 -16 13 -24 -52 -29 -278
-71 -358 -66 -56 3 -83 11 -155 48 -100 51 -209 129 -197 141 18 18 215 23
318 9z m-472 -100 c45 -61 152 -138 272 -196 174 -85 291 -85 603 -3 62 16
137 40 167 54 l53 23 59 -36 c141 -87 303 -229 303 -266 0 -64 -109 -210 -194
-260 -60 -35 -208 -95 -290 -117 -405 -110 -731 -101 -1003 26 -249 117 -402
408 -319 605 19 45 36 65 92 108 55 41 186 110 214 112 3 0 22 -22 43 -50z"/>
</g>
</svg>
